<?xml version="1.0" encoding="utf-8"?>
<!-- Generator: Adobe Illustrator 27.5.0, SVG Export Plug-In . SVG Version: 6.00 Build 0)  -->
<svg version="1.1" id="Layer_1" xmlns="http://www.w3.org/2000/svg" xmlns:xlink="http://www.w3.org/1999/xlink" x="0px" y="0px"
	 viewBox="0 0 900 900" style="enable-background:new 0 0 900 900;display:none;" xml:space="preserve">
<g id="XMLID_6389_" style="display:inline;">
	
		<line id="XMLID_2102_" style="fill:none;stroke:#640917;stroke-width:2.1049;stroke-linecap:round;stroke-miterlimit:10;" x1="631.793" y1="644.134" x2="631.793" y2="623.761"/>
	<ellipse id="XMLID_2101_" style="fill:#DDCAC3;" cx="490.287" cy="672.884" rx="227.488" ry="73.41"/>
	
		<ellipse id="XMLID_2100_" style="fill:#99C6C3;stroke:#640917;stroke-width:2.1049;stroke-miterlimit:10;" cx="445.597" cy="701.327" rx="178.055" ry="40.308"/>
	<path id="XMLID_2097_" style="fill:#E4ECEC;" d="M641.396,695.003c-3.787,15.343-24.467,27.722-61.615,36.809
		c-35.938,8.785-83.553,13.637-134.073,13.637s-98.134-4.852-134.06-13.637c-37.148-9.087-57.828-21.466-61.628-36.809
		c-0.423,1.73-0.641,3.497-0.641,5.3c0,17.812,20.946,31.981,62.269,42.097c35.926,8.785,83.541,13.637,134.06,13.637
		s98.134-4.852,134.073-13.637c41.323-10.116,62.269-24.286,62.269-42.097C642.049,698.5,641.831,696.733,641.396,695.003z
		 M273.882,695.003c1.791-1.452,4.247-3.086,7.599-4.864c7.103-3.751,18.127-8.083,34.995-12.209
		c34.401-8.422,80.298-13.056,129.232-13.056c48.946,0,94.843,4.635,129.232,13.056c16.868,4.126,27.904,8.458,34.995,12.209
		c3.352,1.779,5.808,3.412,7.599,4.864c3.158-2.553,4.199-4.453,4.199-5.288c0-1.307-2.541-5.252-11.798-10.152
		c-7.091-3.763-18.126-8.083-34.995-12.209c-34.389-8.422-80.286-13.056-129.232-13.056c-48.934,0-94.831,4.635-129.232,13.056
		c-16.868,4.126-27.892,8.446-34.995,12.209c-9.257,4.901-11.798,8.845-11.798,10.152
		C269.683,690.55,270.724,692.449,273.882,695.003z"/>
	<path id="XMLID_2095_" style="fill:#E4ECEC;stroke:#640917;stroke-width:2.1049;stroke-miterlimit:10;" d="M617.534,695.003
		c-5.59,4.501-17.788,10.999-42.594,17.074c-25.798,6.316-58.058,10.515-93.221,12.209c-2.94,0.157-5.881,0.266-8.858,0.375
		c-2.965,0.109-5.953,0.194-8.954,0.266c-2.916,0.073-5.832,0.121-8.761,0.157c-3.134,0.036-6.268,0.048-9.438,0.048
		c-3.158,0-6.304-0.012-9.426-0.048c-2.941-0.036-5.857-0.085-8.761-0.157c-3.013-0.073-5.99-0.157-8.966-0.266
		c-2.965-0.109-5.917-0.218-8.845-0.375c-35.164-1.694-67.436-5.893-93.234-12.209c-24.806-6.074-37.003-12.572-42.594-17.074
		c-3.158,2.553-4.199,4.465-4.199,5.3c0,2.299,7.938,12.839,46.793,22.349c25.798,6.329,58.07,10.515,93.234,12.222
		c2.928,0.145,5.881,0.266,8.845,0.363c2.977,0.109,5.953,0.206,8.966,0.266c2.904,0.073,5.82,0.133,8.761,0.169
		c3.122,0.036,6.268,0.048,9.426,0.048c3.17,0,6.304-0.012,9.438-0.048c2.928-0.036,5.845-0.097,8.761-0.169
		c3.001-0.06,5.99-0.157,8.954-0.266c2.977-0.097,5.917-0.218,8.858-0.363c35.164-1.706,67.423-5.893,93.221-12.222
		c38.855-9.511,46.792-20.05,46.792-22.349C621.733,699.468,620.692,697.556,617.534,695.003z"/>
	<path id="XMLID_2092_" style="fill:#F2F7F7;" d="M587.133,729.912c32.531-8.885,50.733-20.61,54.263-34.909
		c-0.399-1.658-1.004-3.279-1.815-4.864c-6.619-13.105-26.657-23.826-59.8-31.933c-29.416-7.2-66.661-11.762-106.919-13.153
		c-2.965-0.109-5.953-0.194-8.954-0.266c-2.916-0.085-5.832-0.133-8.761-0.169c-3.134-0.024-6.268-0.048-9.438-0.048
		c-3.158,0-6.292,0.024-9.426,0.048c-2.941,0.036-5.857,0.085-8.761,0.169c-3.013,0.073-5.99,0.157-8.966,0.266
		c-40.258,1.391-77.491,5.953-106.907,13.153c-33.155,8.107-53.181,18.828-59.813,31.933c-0.798,1.585-1.404,3.207-1.815,4.864
		c3.8,15.343,24.479,27.722,61.628,36.809c35.926,8.785,83.541,13.637,134.06,13.637s98.134-4.852,134.073-13.637
		C582.307,731.194,584.758,730.56,587.133,729.912 M621.733,700.303c0,2.299-7.938,12.839-46.792,22.349
		c-25.798,6.329-58.058,10.515-93.221,12.222c-2.94,0.145-5.881,0.266-8.858,0.363c-2.965,0.109-5.953,0.206-8.954,0.266
		c-2.916,0.073-5.832,0.133-8.761,0.169c-3.134,0.036-6.268,0.048-9.438,0.048c-3.158,0-6.304-0.012-9.426-0.048
		c-2.941-0.036-5.857-0.097-8.761-0.169c-3.013-0.06-5.99-0.157-8.966-0.266c-2.965-0.097-5.917-0.218-8.845-0.363
		c-35.164-1.706-67.436-5.893-93.234-12.222c-38.855-9.511-46.793-20.05-46.793-22.349c0-0.835,1.041-2.747,4.199-5.3
		c-3.158-2.553-4.199-4.453-4.199-5.288c0-1.307,2.541-5.252,11.798-10.152c7.103-3.763,18.127-8.083,34.995-12.209
		c34.401-8.422,80.298-13.056,129.232-13.056c48.946,0,94.843,4.635,129.232,13.056c16.868,4.126,27.904,8.446,34.995,12.209
		c9.257,4.901,11.798,8.845,11.798,10.152c0,0.835-1.041,2.735-4.199,5.288C620.692,697.556,621.733,699.468,621.733,700.303z"/>
	<path id="XMLID_2089_" style="fill:none;stroke:#640917;stroke-width:2.1049;stroke-linecap:round;stroke-miterlimit:10;" d="
		M640.866,694.99c-0.399-1.658-1.004-3.279-1.815-4.864c-6.619-13.105-26.657-23.826-59.8-31.933
		c-29.416-7.2-66.661-11.762-106.919-13.153c-2.965-0.109-5.954-0.193-8.954-0.266c-2.916-0.085-5.833-0.133-8.761-0.169
		c-3.134-0.024-6.268-0.048-9.438-0.048c-3.158,0-6.292,0.024-9.426,0.048c-2.941,0.036-5.857,0.085-8.761,0.169
		c-3.013,0.073-5.99,0.157-8.966,0.266c-40.258,1.392-77.491,5.953-106.907,13.153c-33.155,8.107-53.181,18.828-59.813,31.933
		c-0.798,1.585-1.404,3.207-1.815,4.864c-0.423,1.73-0.641,3.497-0.641,5.3c0,17.812,20.946,31.981,62.269,42.097
		c35.926,8.785,83.541,13.637,134.06,13.637s98.134-4.852,134.073-13.637c41.323-10.116,62.269-24.286,62.269-42.097
		C641.519,698.487,641.302,696.721,640.866,694.99z M273.352,694.99c1.791-1.452,4.247-3.086,7.599-4.864
		c7.103-3.751,18.126-8.083,34.995-12.209c34.401-8.422,80.298-13.056,129.232-13.056c48.946,0,94.843,4.635,129.233,13.056
		c16.868,4.126,27.904,8.458,34.994,12.209c3.352,1.779,5.808,3.412,7.599,4.864c3.158,2.553,4.199,4.465,4.199,5.3
		c0,2.299-7.938,12.839-46.792,22.349c-25.798,6.328-58.058,10.515-93.222,12.221c-2.94,0.145-5.881,0.266-8.857,0.363
		c-2.965,0.109-5.954,0.206-8.954,0.266c-2.916,0.073-5.833,0.133-8.761,0.169c-3.134,0.036-6.268,0.048-9.438,0.048
		c-3.158,0-6.304-0.012-9.426-0.048c-2.941-0.036-5.857-0.097-8.761-0.169c-3.013-0.06-5.99-0.157-8.966-0.266
		c-2.965-0.097-5.917-0.218-8.846-0.363c-35.164-1.706-67.436-5.893-93.233-12.221c-38.855-9.511-46.792-20.05-46.792-22.349
		C269.153,699.456,270.194,697.544,273.352,694.99z"/>
	<ellipse id="XMLID_2088_" style="fill:#E25959;" cx="445.717" cy="623.665" rx="186.076" ry="56.409"/>
	<path id="XMLID_2087_" style="fill:#FFFFFF;" d="M259.338,239.94c0,99.601,78.213,180.928,176.571,185.93
		c3.157,0.161,5.631,2.771,5.631,5.932l0,0c0,3.161-2.474,5.771-5.631,5.932c-98.358,5.003-176.571,86.329-176.571,185.93h372.366
		c0-99.602-78.213-180.927-176.571-185.93c-3.157-0.161-5.631-2.771-5.631-5.932l0,0c0-3.161,2.474-5.771,5.631-5.932
		c98.358-5.003,176.594-85.85,176.594-185.452"/>
	<path id="XMLID_2086_" style="fill:#CDE0DF;" d="M631.897,179.44v45.582c0,25.181-83.348,45.582-186.177,45.582
		c-100.93,0-183.103-19.651-186.104-44.191c-0.061-0.46-0.085-0.92-0.085-1.392V179.44c0,4.15,2.263,8.168,6.51,11.992
		c0,0.012,0.012,0.012,0.024,0.024c1.61,1.452,3.521,2.868,5.687,4.259c26.778,17.134,94.565,29.307,173.968,29.307
		c78.374,0,145.435-11.858,172.891-28.642c3.061-1.863,5.627-3.8,7.66-5.784C629.949,187.027,631.897,183.288,631.897,179.44z"/>
	<path id="XMLID_2085_" style="fill:#E88D3A;" d="M631.793,693.904c0,2.511-3.237,2.698-5.064,4.421
		c-9.808,9.25-47.053,37.395-181.018,37.395c-131.794,0-172.655-25.977-183.017-35.211c-1.942-1.731-3.054-4.198-3.054-6.8v-89.277
		c0-5.021,4.07-9.091,9.092-9.091h353.969c5.021,0,9.091,4.07,9.091,9.091V693.904z"/>
	<path id="XMLID_2084_" style="fill:#E88D3A;" d="M282.285,328.36c0,0,48.439,98.087,163.538,98.087s163.538-98.087,163.538-98.087
		H282.285z"/>
	<path id="XMLID_2082_" style="fill:#CDE0DF;" d="M631.897,644.556v45.594c0,25.169-83.348,45.57-186.177,45.57
		c-102.829,0-186.189-20.401-186.189-45.57v-45.594c0,25.181,83.36,45.594,186.189,45.594
		C548.549,690.15,631.897,669.737,631.897,644.556z"/>
	<path id="XMLID_2081_" style="fill:none;stroke:#640917;stroke-width:2.1049;stroke-linecap:round;stroke-miterlimit:10;" d="
		M631.793,644.134v45.59c0,25.175-83.359,45.577-186.18,45.577c-102.834,0-186.193-20.402-186.193-45.577v-45.59
		c0,25.175,83.359,45.59,186.193,45.59C548.434,689.723,631.793,669.309,631.793,644.134z"/>
	<polygon id="XMLID_2080_" style="fill:#E88D3A;" points="432.275,420.946 446.022,433.853 456.397,420.946 441.162,419.041 	"/>
	<ellipse id="XMLID_2079_" style="fill:#FFBF4D;" cx="445.521" cy="328.36" rx="162.094" ry="39.683"/>
	<path id="XMLID_2078_" style="fill:none;stroke:#640917;stroke-width:2.1049;stroke-linecap:round;stroke-miterlimit:10;" d="
		M631.793,623.665c0-99.602-77.8-180.927-176.158-185.93c-3.157-0.161-5.631-2.771-5.631-5.932l0,0c0-3.161,2.474-5.771,5.631-5.932
		c98.358-5.003,176.083-83.967,176.083-183.568"/>
	<path id="XMLID_2077_" style="fill:none;stroke:#640917;stroke-width:2.1049;stroke-linecap:round;stroke-miterlimit:10;" d="
		M259.641,239.94c0,99.601,77.992,180.928,176.35,185.93c3.157,0.161,5.631,2.771,5.631,5.932l0,0c0,3.161-2.474,5.771-5.631,5.932
		c-98.358,5.003-176.571,86.329-176.571,185.93"/>
	<path id="XMLID_2076_" style="fill:none;stroke:#640917;stroke-width:2.1049;stroke-linecap:round;stroke-miterlimit:10;" d="
		M632.006,225.021c0,25.174-83.357,45.581-186.183,45.581s-186.183-20.407-186.183-45.581"/>
	
		<line id="XMLID_2075_" style="fill:#E88D3A;stroke:#E88D3A;stroke-width:5.2623;stroke-linecap:round;stroke-miterlimit:10;" x1="445.824" y1="423.908" x2="445.824" y2="497.542"/>
	<ellipse id="XMLID_2074_" style="fill:#FFBF4D;" cx="445.521" cy="595.719" rx="183.209" ry="44.853"/>
	
		<line id="XMLID_2073_" style="fill:#E88D3A;stroke:#E88D3A;stroke-width:5.2623;stroke-linecap:round;stroke-miterlimit:10;" x1="445.824" y1="506.429" x2="445.824" y2="514.064"/>
	
		<line id="XMLID_2072_" style="fill:#E88D3A;stroke:#E88D3A;stroke-width:5.2623;stroke-linecap:round;stroke-miterlimit:10;" x1="445.824" y1="523.512" x2="445.824" y2="526.686"/>
	<path id="XMLID_2071_" style="fill:#F9A541;" d="M515.818,323.133c0,4.719-14.859,8.809-36.713,10.902
		c-9.85,0.944-21.115,1.476-33.082,1.476c-13.286,0-25.701-0.653-36.265-1.803c-20.111-2.166-33.53-6.098-33.53-10.576
		c0-6.837,31.243-12.379,69.795-12.379S515.818,316.296,515.818,323.133z"/>
	<path id="XMLID_2070_" style="fill:#E88D3A;" d="M479.105,334.035c-9.85,0.944-21.115,1.476-33.082,1.476
		c-13.286,0-25.701-0.653-36.265-1.803c2.299-3.013,16.904-5.348,34.583-5.348C462.637,328.36,477.653,330.853,479.105,334.035z"/>
	<path id="XMLID_2069_" style="opacity:0.55;fill:#A0C1BF;" d="M631.897,186.253v25.471c-9.995,8.93-27.468,16.469-52.31,22.555
		c-35.926,8.785-83.553,13.637-134.06,13.637c-50.531,0-98.134-4.852-134.073-13.637c-24.528-6.002-41.879-13.432-51.923-22.204
		V186.58c1.912,1.67,4.078,3.291,6.51,4.852c0,0.012,0.012,0.012,0.024,0.024c1.319,0.847,2.723,1.694,4.211,2.517
		c0.351,0.508,0.835,1.101,1.476,1.743c4.392,4.453,16.299,11.919,44.529,18.828c25.798,6.316,58.07,10.515,93.234,12.209
		c2.94,0.157,5.881,0.266,8.846,0.375c2.977,0.109,5.965,0.194,8.966,0.266c2.904,0.073,5.833,0.121,8.761,0.157
		c3.122,0.036,6.268,0.048,9.438,0.048c3.158,0,6.292-0.012,9.426-0.048c2.94-0.036,5.857-0.085,8.761-0.157
		c3.013-0.073,5.99-0.157,8.966-0.266c2.965-0.109,5.917-0.218,8.846-0.375c35.164-1.694,67.424-5.893,93.222-12.209
		c26.875-6.583,38.963-13.649,43.864-18.163c1.016-0.92,1.718-1.743,2.178-2.42c1.96-1.089,3.787-2.214,5.481-3.364
		C628.352,189.193,630.227,187.741,631.897,186.253z"/>
	<path id="XMLID_2067_" style="fill:#C0D8D7;" d="M621.116,152.202c-10.128-5.651-23.874-10.612-41.226-14.859
		c-29.416-7.2-66.649-11.75-106.907-13.153c-2.977-0.097-5.953-0.194-8.966-0.266c-2.904-0.073-5.82-0.121-8.761-0.169
		c-3.134-0.024-6.268-0.048-9.426-0.048c-3.17,0-6.304,0.024-9.438,0.048c-2.928,0.048-5.856,0.097-8.761,0.169
		c-3.001,0.073-5.99,0.169-8.966,0.266c-40.246,1.404-77.491,5.953-106.907,13.153c-17.34,4.247-31.098,9.208-41.214,14.847
		c-7.938,4.417-13.637,9.257-17.086,14.508c3.461,5.252,9.172,10.104,17.122,14.533c-0.557-0.799-0.774-1.404-0.774-1.791
		c0-1.307,2.541-5.252,11.786-10.152c1.585-0.835,3.364-1.706,5.373-2.589c6.946-3.098,16.529-6.413,29.622-9.62
		c34.402-8.422,80.298-13.056,129.245-13.056c48.934,0,94.831,4.634,129.22,13.056c13.117,3.207,22.688,6.522,29.646,9.62
		c1.996,0.883,3.775,1.755,5.36,2.589c9.257,4.901,11.798,8.845,11.798,10.152c0,0.387-0.218,0.992-0.762,1.779
		c7.938-4.429,13.649-9.269,17.098-14.52C634.753,161.459,629.041,156.619,621.116,152.202z"/>
	<path id="XMLID_2066_" style="fill:#E4ECEC;stroke:#640917;stroke-width:2.1049;stroke-miterlimit:10;" d="M642.158,179.44
		c0,17.812-20.946,31.981-62.269,42.097c-35.926,8.785-83.553,13.637-134.061,13.637c-50.531,0-98.134-4.852-134.073-13.637
		c-41.323-10.116-62.269-24.285-62.269-42.097c0-3.521,0.823-6.922,2.469-10.152c0.436-0.871,0.944-1.742,1.5-2.589
		c3.461,5.252,9.172,10.104,17.122,14.533c2.735,3.993,13.637,12.645,46.006,20.571c25.798,6.316,58.07,10.515,93.234,12.209
		c2.94,0.157,5.881,0.266,8.845,0.375c2.977,0.109,5.965,0.194,8.966,0.266c2.904,0.073,5.832,0.121,8.761,0.157
		c3.122,0.036,6.268,0.048,9.438,0.048c3.158,0,6.292-0.012,9.426-0.048c2.94-0.036,5.856-0.085,8.761-0.157
		c3.013-0.073,5.99-0.157,8.966-0.266c2.965-0.109,5.917-0.218,8.845-0.375c35.164-1.694,67.424-5.893,93.222-12.209
		c32.417-7.938,43.319-16.59,46.042-20.583c7.938-4.429,13.649-9.269,17.098-14.52c0.569,0.847,1.077,1.718,1.513,2.589
		C641.335,172.519,642.158,175.919,642.158,179.44z"/>
	
		<ellipse id="XMLID_2065_" style="fill:#CDE0DF;stroke:#640917;stroke-width:2.1049;stroke-linecap:round;stroke-miterlimit:10;" cx="445.925" cy="169.282" rx="192.468" ry="45.576"/>
	<path id="XMLID_2064_" style="fill:#FFF3E4;stroke:#640917;stroke-width:2.1049;stroke-linecap:round;stroke-miterlimit:10;" d="
		M340.76,560.466"/>
	<g id="XMLID_2062_">
		<path id="XMLID_2063_" style="fill:#E25959;stroke:#640917;stroke-width:2.1049;stroke-linecap:round;stroke-miterlimit:10;" d="
			M411.849,605.779c-2.213,0-4.442-0.711-6.322-2.178c-4.477-3.495-5.274-9.959-1.778-14.437l25.433-32.58
			c2.889-3.7,7.219-6.142,11.88-6.697l45.875-5.466c5.64-0.667,10.758,3.356,11.43,8.997c0.672,5.64-3.356,10.758-8.997,11.43
			l-44.699,5.325l-24.706,31.65C417.935,604.42,414.907,605.779,411.849,605.779z"/>
	</g>
	<path id="XMLID_2061_" style="fill:#FF9F36;" d="M397.552,591.105c0,0,10.159-12.569,24.944-11.359
		c14.785,1.21,27.507,12.907,27.507,12.907s-24.23,12.14-25.427,13.337C423.38,607.187,397.552,591.105,397.552,591.105z"/>
	<path id="XMLID_2060_" style="fill:#FFBF4D;" d="M450.808,537.268l56.685,62.148H381.07l60.025-62.282
		C443.763,534.365,448.216,534.426,450.808,537.268z"/>
	<g id="XMLID_2058_">
		<path id="XMLID_2059_" style="fill:#E25959;stroke:#640917;stroke-width:2.1049;stroke-linecap:round;stroke-miterlimit:10;" d="
			M475.595,635.714c-1.34,0-2.702-0.263-4.014-0.82l-45.343-19.244l-28.618,12.445c-5.21,2.267-11.269-0.122-13.534-5.331
			c-2.265-5.209,0.122-11.268,5.331-13.534l29.497-12.827c4.594-1.997,9.871-2.021,14.482-0.063l46.222,19.616
			c5.229,2.219,7.669,8.258,5.45,13.487C483.405,633.361,479.599,635.713,475.595,635.714z"/>
	</g>
	<path id="XMLID_2057_" style="fill:#FFBF4D;" d="M425.787,637.425h73.308c0,0,2.531-31.446-3.63-28.033
		c-32.762,18.151-69.678,8.47-69.678,8.47V637.425z"/>
	<path id="XMLID_2056_" style="fill:#640917;" d="M547.282,554.44l5.43,2.074l-8.141,3.762l-5.277-2.538l1.719-1.844
		C542.612,554.178,545.091,553.603,547.282,554.44z"/>
	<path id="XMLID_2055_" style="fill:#FFBF4D;" d="M351.309,620.521l56.468,16.396c0,0,24.988-18.094,18.01-19.055
		c-40.133-5.524-21.247-42.799-21.247-42.799L351.309,620.521z"/>
	<path id="XMLID_2054_" style="fill:#640917;" d="M575.23,582.48l-41.524,44.556l-31.573-29.424l38.744-41.573
		c1.535-1.647,4.115-1.738,5.763-0.203L575.23,582.48z"/>
	<path id="XMLID_2053_" style="fill:#77172A;" d="M579.039,586.594l-38.677,41.501l-31.573-29.424l38.677-41.501
		c1.572-1.687,4.215-1.78,5.902-0.208l25.463,23.73C580.518,582.264,580.611,584.907,579.039,586.594z"/>
	<path id="XMLID_2052_" style="fill:#FFBF4D;" d="M510.893,631.173l71.482-7.508c0,0,4.357-39.231-1.804-35.817
		c-32.761,18.151-83.745,5.965-83.745,5.965L510.893,631.173z"/>
	<path id="XMLID_2051_" style="fill:#F28A22;" d="M324.622,582.901c0,0,1.891-11.749,23.067-20.659
		c12.466-5.245,38.361-3.896,38.361-3.896l16.016,23.124c0,0-23.96,9.475-48.215,7.609S324.622,582.901,324.622,582.901z"/>
	<path id="XMLID_2050_" style="fill:#640917;" d="M501.429,558.665c0.431,3.056-1.727,5.872-4.789,6.252l-5.179,0.643l-2.964,0.327
		l-2.466-20.932l2.853-18.355c0.284-1.825,1.763-3.229,3.601-3.417l0,0c2.171-0.222,4.129,1.312,4.434,3.474L501.429,558.665z"/>
	<path id="XMLID_2049_" style="fill:#640917;" d="M492.829,631.141l0.268-1.41c-3.683-1.275-7.778,5.969-6.503,2.287l-0.361-13.214
		l10.378-6.264c0.484-0.292,0.898-0.686,1.213-1.155l4.531-6.743c1.718-2.557,5.747-2.241,6.783,0.661
		c0.521,1.459,0.567,3.099,0.021,4.678l-7.223,20.859C500.662,634.523,496.512,632.416,492.829,631.141z"/>
	<path id="XMLID_2048_" style="fill:#FFBF4D;" d="M479.197,636.013l27.437-2.642c0,0,18.719-20.154,11.889-18.431
		c-17.382,4.386-39.326,1.511-39.326,1.511V636.013z"/>
	<path id="XMLID_2047_" style="fill:#FFFFFF;stroke:#640917;stroke-width:2.1049;stroke-linecap:round;stroke-miterlimit:10;" d="
		M415.491,506.02c-3.99-0.359-7.52,2.593-7.876,6.587l-0.977,10.957c-0.81,9.084-5.521,17.369-12.913,22.71l-11.237,8.118
		c-4.235-0.67-8.71-0.054-12.799,2.091l-2.347,1.231c-3.22,1.689-5.801,4.112-7.663,6.951c-0.169,0.01-0.337,0.016-0.507,0.039
		c-16.835,2.179-31.774,11.872-40.623,26.358l-3.208,5.252c-1.82,2.979-1.464,6.926,1.108,9.286
		c1.453,1.333,3.221,1.957,4.959,1.957c2.446,0,4.834-1.237,6.203-3.477l3.473-5.685c4.406-7.212,10.879-12.792,18.448-16.12
		c3.433-1.51,7.353-0.061,9.086,3.266c0.01,0.018,0.019,0.037,0.029,0.055l9.545,18.196c5.298,10.101,17.782,13.995,27.883,8.696
		l2.348-1.231c10.101-5.298,13.995-17.782,8.696-27.883l-9.545-18.197c-0.005-0.009-0.01-0.018-0.014-0.028
		c-0.809-1.534-0.436-3.42,0.97-4.435l0.153-0.11c13.056-9.433,21.378-24.068,22.807-40.112l0.588-6.598
		C422.434,509.902,419.485,506.375,415.491,506.02z"/>
	<polygon id="XMLID_2046_" style="fill:#E25959;" points="371.663,566.733 376.711,568.941 379.301,567.163 378.786,562.263 
		373.654,559.525 371.663,561.525 	"/>
	<path id="XMLID_2045_" style="fill:#FFEDD9;stroke:#640917;stroke-width:2.1049;stroke-linecap:round;stroke-miterlimit:10;" d="
		M373.901,554.202l-3.902-7.649l-12.577,5.914l4.952,8.885l4.433,1.293C371.836,564.111,376.212,558.904,373.901,554.202
		L373.901,554.202z"/>
	<g id="XMLID_2025_">
		<path id="XMLID_2044_" style="fill:#FFEDD9;stroke:#640917;stroke-width:2.1049;stroke-linecap:round;stroke-miterlimit:10;" d="
			M343.011,535.676l4.944,10.839l0,0c3.916,8.594,14.058,12.386,22.651,8.468h0c8.588-3.915,12.377-14.051,8.462-22.64
			l-5.217-11.444l-0.882-1.936c-2.009-4.407-7.211-6.352-11.618-4.343l-15.148,6.904c-4.408,2.009-6.353,7.211-4.343,11.619
			l1.751,3.842"/>
		<path id="XMLID_2041_" style="fill:#FCD3B6;" d="M343.012,535.678l4.946,10.839c0.002,0.004,0.002,0.004,0.003,0.008
			c3.915,8.588,14.057,12.375,22.644,8.46l2.53-1.153c0.165-0.075,0.332-0.156,0.496-0.235c-8.467,3.507-18.261-0.3-22.092-8.703
			c-0.002-0.004-0.002-0.004-0.004-0.008l-4.946-10.839l0.601,1.307l-1.752-3.843c-2.004-4.396-0.076-9.586,4.312-11.605
			l-3.547,1.617c-4.407,2.009-6.352,7.212-4.343,11.619l1.752,3.843L343.012,535.678z"/>
		<path id="XMLID_2040_" style="fill:none;stroke:#640917;stroke-width:2.1049;stroke-linecap:round;stroke-miterlimit:10;" d="
			M342.972,535.589l4.944,10.839l0.002,0.003c3.915,8.592,14.054,12.383,22.646,8.467l0,0c8.59-3.916,12.38-14.054,8.464-22.645
			l-5.215-11.441l-0.882-1.936c-2.009-4.407-7.211-6.352-11.618-4.343l-15.148,6.904c-4.408,2.009-6.353,7.211-4.343,11.619
			l1.751,3.842"/>
		<path id="XMLID_2039_" style="fill:none;stroke:#2E2F73;stroke-width:2.1049;stroke-linecap:round;stroke-miterlimit:10;" d="
			M377.852,521.409"/>
		<path id="XMLID_2038_" style="fill:none;stroke:#640917;stroke-width:2.1049;stroke-linecap:round;stroke-miterlimit:10;" d="
			M370.914,538.638c1.297-0.591,1.87-2.123,1.278-3.42"/>
		<path id="XMLID_2037_" style="fill:#FFF3E4;stroke:#640917;stroke-width:2.1049;stroke-linecap:round;stroke-miterlimit:10;" d="
			M345.062,545.187"/>
		<path id="XMLID_2036_" style="fill:#FCD3B6;stroke:#640917;stroke-width:2.1049;stroke-linecap:round;stroke-miterlimit:10;" d="
			M350.531,542.694c-0.979-2.147-3.512-3.094-5.659-2.115c-2.147,0.979-3.094,3.512-2.115,5.659
			c0.979,2.147,3.512,3.094,5.659,2.115c0.7-0.319,1.273-0.804,1.693-1.387"/>
		<path id="XMLID_2035_" style="fill:none;stroke:#640917;stroke-width:2.1049;stroke-linecap:round;stroke-miterlimit:10;" d="
			M369.925,529.054"/>
		<path id="XMLID_2034_" style="fill:none;stroke:#640917;stroke-width:2.1049;stroke-linecap:round;stroke-miterlimit:10;" d="
			M376.011,526.28"/>
		<path id="XMLID_2033_" style="fill:none;stroke:#2E2F73;stroke-width:2.1049;stroke-linecap:round;stroke-miterlimit:10;" d="
			M365.605,526.992"/>
		<path id="XMLID_2032_" style="fill:#77172A;stroke:#640917;stroke-width:2.1049;stroke-linecap:round;stroke-miterlimit:10;" d="
			M370.223,519.134c-9.405,2.909-19.954,9.052-19.955,21.98c0,0.395-0.439,0.615-0.757,0.382c-3.958-2.903-6.54,0.871-6.54,0.871
			c-6.808-7.194-9.591-18.512-4.089-26.924c8.93-13.654,23.69-13.613,31.555-8.954C375.976,509.769,376.373,517.232,370.223,519.134
			z"/>
		<path id="XMLID_2030_" style="fill:none;stroke:#2E2F73;stroke-width:2.1049;stroke-linecap:round;stroke-miterlimit:10;" d="
			M377.615,539.545"/>
		<path id="XMLID_2029_" style="fill:#630B18;" d="M376.944,543.63c0,1.571-1.274,2.845-2.845,2.845
			c-1.571,0-2.845-1.274-2.845-2.845c0-1.571,1.274-2.845,2.845-2.845C375.67,540.785,376.944,542.059,376.944,543.63z"/>
		
			<line id="XMLID_2028_" style="fill:none;stroke:#640917;stroke-width:2.1049;stroke-linecap:round;stroke-miterlimit:10;" x1="372.192" y1="535.218" x2="369.28" y2="530.286"/>
		
			<line id="XMLID_2027_" style="fill:none;stroke:#640917;stroke-width:4.2099;stroke-linecap:round;stroke-miterlimit:10;" x1="362.558" y1="534.306" x2="362.104" y2="533.537"/>
		
			<line id="XMLID_2026_" style="fill:none;stroke:#640917;stroke-width:4.2099;stroke-linecap:round;stroke-miterlimit:10;" x1="373.333" y1="528.425" x2="372.879" y2="527.656"/>
	</g>
	<path id="XMLID_2024_" style="fill:#FFEDD9;stroke:#640917;stroke-width:2.1049;stroke-linecap:round;stroke-miterlimit:10;" d="
		M410.573,499.883l-9.529-6.504c-0.877-0.773-2.216-0.689-2.989,0.189l0,0c-0.773,0.877-0.689,2.216,0.189,2.989l9.746,7.807
		c0.34,0.3,0.516,0.745,0.473,1.196l0,0c-0.075,0.783-0.774,1.355-1.557,1.273l-4.261-0.209c-1.049-0.11-2.097,0.504-2.374,1.522
		c-0.353,1.297,0.539,2.544,1.818,2.678l5.834,0.374l-0.147,1.541l13.865,1.324l0.854-8.944c0-2.816-1.312-5.46-1.501-5.817
		l-6.018-11.62c-0.493-0.932-1.588-1.46-2.587-1.122c-1.274,0.43-1.811,1.866-1.21,3.002l3.468,7.991"/>
	<path id="XMLID_2023_" style="fill:#FFEDD9;stroke:#640917;stroke-width:2.1049;stroke-linecap:round;stroke-miterlimit:10;" d="
		M414.649,497.553l-7.215-9.127c-0.646-0.834-1.815-1.165-2.741-0.661c-1.181,0.642-1.463,2.149-0.675,3.166l6.555,8.952"/>
	<path id="XMLID_2022_" style="fill:#FFBF4D;" d="M343.605,614.836H306.9l8.596-38.241c0,0,14.042,11.987,32.848,11.987
		C355.449,588.582,343.605,614.836,343.605,614.836z"/>
	<path id="XMLID_2021_" style="fill:#FFFFFF;stroke:#640917;stroke-width:2.1049;stroke-linecap:round;stroke-miterlimit:10;" d="
		M362.374,561.352l-2.736,3.521l10.362,4.28c0.792,0.327,1.663-0.255,1.663-1.112v-6.051
		C371.663,561.989,368.154,563.411,362.374,561.352z"/>
	<path id="XMLID_2020_" style="fill:#FFFFFF;stroke:#640917;stroke-width:2.1049;stroke-linecap:round;stroke-miterlimit:10;" d="
		M374.982,554.577l-0.866,4.947l4.826,2.575c0.73,0.39,1.627-0.057,1.755-0.875l0.948-6.057
		C381.645,555.167,379.959,554.086,374.982,554.577z"/>
	<path id="XMLID_2019_" style="fill:#E25959;" d="M376.641,568.931l2.857,20.147c0,0,8.374,0,15.959-3.294l-16.156-18.622
		L376.641,568.931z"/>
	<path id="XMLID_2018_" style="fill:none;stroke:#F7F0ED;stroke-width:3.1574;stroke-linecap:round;stroke-miterlimit:10;" d="
		M526.422,575.063l-2.987-2.554c-1.903-1.627-4.753-1.453-6.443,0.394l-8.821,9.636c-1.814,1.981-1.573,5.084,0.524,6.762
		l2.804,2.243"/>
	<path id="XMLID_2017_" style="fill:#FFBF4D;" d="M355.78,589.225c0,0,43.991,4.638,56.076-15.73
		c0.054,8.793,1.092,16.157,2.579,22.225c-7.151,6.413-8.358,13.502-7.151,16.396c3.794,9.101,18.504,6.958,18.504,6.958
		l-30.802,9.285c0,0-27.125-0.311-27.28-0.155C367.549,628.357,355.78,589.225,355.78,589.225z"/>
	
		<line id="XMLID_2013_" style="fill:#E25959;stroke:#640917;stroke-width:2.1049;stroke-linecap:round;stroke-miterlimit:10;" x1="495.969" y1="524.568" x2="501.484" y2="561.898"/>
	<path id="XMLID_2008_" style="fill:#E88D3A;" d="M480.586,570.046l19.797-2.461c1.534-0.191,2.988,0.735,3.464,2.206l0,0
		c0.622,1.923-0.659,3.937-2.664,4.189l-15.152,1.905L480.586,570.046z"/>
	<path id="XMLID_1837_" style="fill:#FFC871;" d="M414.978,564.233l25.524-28.353c2.825-3.138,7.761-3.086,10.52,0.109
		l24.382,28.244l-12.745-7.617c-10.398-6.215-23.341-6.333-33.851-0.309L414.978,564.233z"/>
	<path id="XMLID_1836_" style="opacity:0.07;fill:#77172A;" d="M453.076,437.001c0,0,139.848,9.649,134.831,236.527
		c-0.987,45.889-0.987,45.889-0.987,45.889s41.045-8.987,44.983-29.268c0,0-0.167-15.93-0.176-38.126
		c-0.005-11.414,1.757-23.583,0-37.98c-5.06-41.48-19.855-91.27-58.59-125.924C507.116,429.053,453.076,437.001,453.076,437.001z"/>
	<path id="XMLID_1835_" style="opacity:0.07;fill:#77172A;" d="M454.487,424.827c0,0,126.902-8.756,134.598-205.701
		c2.636-2.636,20.728-5.114,42.962-19.627c1.386,25.225,0.58,67.799-11.95,105.752c-8.612,26.088-22.763,48.073-45.549,68.458
		C508.528,432.775,454.487,424.827,454.487,424.827z"/>
	
		<line id="XMLID_1828_" style="fill:none;stroke:#640917;stroke-width:2.1049;stroke-linecap:round;stroke-miterlimit:10;" x1="259.338" y1="198.877" x2="259.338" y2="244.032"/>
	
		<line id="XMLID_1827_" style="fill:none;stroke:#640917;stroke-width:2.1049;stroke-linecap:round;stroke-miterlimit:10;" x1="631.897" y1="198.877" x2="631.897" y2="244.032"/>
	
		<line id="XMLID_1823_" style="fill:none;stroke:#640917;stroke-width:2.1049;stroke-linecap:round;stroke-miterlimit:10;" x1="259.431" y1="659.039" x2="259.431" y2="617.991"/>
	
		<line id="XMLID_1822_" style="fill:none;stroke:#640917;stroke-width:2.1049;stroke-linecap:round;stroke-miterlimit:10;" x1="631.727" y1="667.722" x2="631.727" y2="623.761"/>
</g>
<path style="display:inline;fill:#FFFFFF;" d="M295.466,550.122c-12.687,25.443-19.172,53.444-18.904,81.877
	c0.018,1.929,3.018,1.934,3,0c-0.263-27.902,6.042-55.388,18.495-80.362C298.916,549.914,296.329,548.393,295.466,550.122z"/>
</svg>
